<svg xmlns="http://www.w3.org/2000/svg" viewBox="0 0 512 512">
  <defs>
    <linearGradient id="g" x1="0" x2="1" y1="0" y2="1">
      <stop stop-color="#1e8cff"/>
      <stop offset="1" stop-color="#39ff14"/>
    </linearGradient>
    <filter id="glow"><feGaussianBlur stdDeviation="7" result="b"/><feMerge><feMergeNode in="b"/><feMergeNode in="SourceGraphic"/></feMerge></filter>
  </defs>
  <rect width="512" height="512" rx="56" fill="#05070b"/>
  <rect x="20" y="20" width="472" height="472" rx="42" fill="none" stroke="url(#g)" stroke-width="14"/>
  <path d="M72 151h120c53 0 85 28 85 74 0 48-34 78-88 78h-55v68H72V151zm62 105h48c21 0 33-11 33-29 0-19-12-29-33-29h-48v58z" fill="#1e8cff" filter="url(#glow)"/>
  <path d="M248 151h168v49H303v38h101v49H303v84h-55V151z" fill="#39ff14" filter="url(#glow)"/>
  <path d="M205 306c18 18 50 28 84 28 28 0 45-8 45-22 0-15-16-19-56-26-54-10-83-29-83-68 0-44 40-72 101-72 39 0 76 11 101 32l-31 42c-19-15-45-24-70-24-25 0-39 8-39 20 0 14 16 18 58 26 56 10 82 31 82 70 0 46-42 73-110 73-47 0-88-14-116-40l34-39z" fill="#d8e2e8"/>
</svg>
